HIERARCHY
ROOT Hips
{
  OFFSET 49.8378 54.538 2.76612
  CHANNELS 6 Xposition Yposition Zposition Zrotation Xrotation Yrotation
  JOINT spine
  {
    OFFSET 0 7.80059 0.448573
    CHANNELS 3 Zrotation Xrotation Yrotation
    JOINT spine1
    {
      OFFSET 0 10.1364 0
      CHANNELS 3 Zrotation Xrotation Yrotation
      JOINT spine2
      {
        OFFSET 0 9.71251 0
        CHANNELS 3 Zrotation Xrotation Yrotation
        JOINT Neck
        {
          OFFSET 0 24.9361 1.18887
          CHANNELS 3 Zrotation Xrotation Yrotation
          JOINT Head
          {
            OFFSET 0 7.53384 0
            CHANNELS 3 Zrotation Xrotation Yrotation
            End Site
            {
              OFFSET 0 18.2361 -6.01402
            }
          }
        }
        JOINT RightShoulder
        {
          OFFSET -4.08965 10.4888 -0.569457
          CHANNELS 3 Zrotation Xrotation Yrotation
          JOINT RightArm
          {
            OFFSET 0 13.757 0
            CHANNELS 3 Zrotation Xrotation Yrotation
            JOINT RightArmRoll
            {
              OFFSET 0 6.94478 0
              CHANNELS 3 Zrotation Xrotation Yrotation
              JOINT RightForeArm
              {
                OFFSET 0 20.2277 0
                CHANNELS 3 Zrotation Xrotation Yrotation
                JOINT RightForeArmRoll
                {
                  OFFSET 0 7.79312 0
                  CHANNELS 3 Zrotation Xrotation Yrotation
                  JOINT RightHand
                  {
                    OFFSET 0 15.6391 0
                    CHANNELS 3 Zrotation Xrotation Yrotation
                    End Site
                    {
                      OFFSET 0 0 0
                    }
                  }
                }
              }
            }
          }
        }
        JOINT LeftShoulder
        {
          OFFSET 4.08965 10.4888 -0.569457
          CHANNELS 3 Zrotation Xrotation Yrotation
          JOINT LeftArm
          {
            OFFSET 0 13.757 0
            CHANNELS 3 Zrotation Xrotation Yrotation
            JOINT LeftArmRoll
            {
              OFFSET 0 6.94478 0
              CHANNELS 3 Zrotation Xrotation Yrotation
              JOINT LeftForeArm
              {
                OFFSET 0 20.2277 0
                CHANNELS 3 Zrotation Xrotation Yrotation
                JOINT LeftForeArmRoll
                {
                  OFFSET 0 7.79313 0
                  CHANNELS 3 Zrotation Xrotation Yrotation
                  JOINT LeftHand
                  {
                    OFFSET 0 15.6391 0
                    CHANNELS 3 Zrotation Xrotation Yrotation
                    End Site
                    {
                      OFFSET 0 0 0
                    }
                  }
                }
              }
            }
          }
        }
      }
    }
  }
  JOINT RightUpLeg
  {
    OFFSET -6.91416 -1.26788 -1.06358
    CHANNELS 3 Zrotation Xrotation Yrotation
    JOINT RightUpLegRoll
    {
      OFFSET 0 18.3378 0
      CHANNELS 3 Zrotation Xrotation Yrotation
      JOINT RightLeg
      {
        OFFSET 0 -22.7085 0
        CHANNELS 3 Zrotation Xrotation Yrotation
        JOINT RightLegRoll
        {
          OFFSET 0 22.7828 0
          CHANNELS 3 Zrotation Xrotation Yrotation
          JOINT RightFoot
          {
            OFFSET 0 18.9629 0
            CHANNELS 3 Zrotation Xrotation Yrotation
            JOINT RightToeBase
            {
              OFFSET 0 15.852 0
              CHANNELS 3 Zrotation Xrotation Yrotation
              End Site
              {
                OFFSET 0.00671906 7.67701 -0.884893
              }
            }
          }
        }
      }
    }
  }
  JOINT LeftUpLeg
  {
    OFFSET 6.91416 -1.26788 -1.06358
    CHANNELS 3 Zrotation Xrotation Yrotation
    JOINT LeftUpLegRoll
    {
      OFFSET 0 18.3379 0
      CHANNELS 3 Zrotation Xrotation Yrotation
      JOINT LeftLeg
      {
        OFFSET 0 22.7084 0
        CHANNELS 3 Zrotation Xrotation Yrotation
        JOINT LeftLegRoll
        {
          OFFSET 0 22.9934 0
          CHANNELS 3 Zrotation Xrotation Yrotation
          JOINT LeftFoot
          {
            OFFSET 0 18.7522 0
            CHANNELS 3 Zrotation Xrotation Yrotation
            JOINT LeftToeBase
            {
              OFFSET 0 15.852 0
              CHANNELS 3 Zrotation Xrotation Yrotation
              End Site
              {
                OFFSET -0.030112 7.67701 -0.884892
              }
            }
          }
        }
      }
    }
  }
}
MOTION
Frames: 9
Frame Time: 0.00208333
55.3312 94.0018 32.6595 -1.79336 -2.5443 1.69098 0.188715 -0.921776 0.0126337 0.37768 2.14276 0.0151239 0.377864 3.78782 0.0150099 -2.69002 12.5135 -0.817321 3.35319 -10.9533 -0.862122 81.0864 -4.17384 -4.08742 89.3306 7.89845 16.3021 4.57451e-006 8.23081e-007 3.25657e-006 11.3547 11.942 -2.11329 1.1581e-005 3.05772e-007 -3 8.02889 -4.9514 0.697667 -63.3367 -1.37127 1.33505 -106.931 -4.46344 -16.0002 4.38208e-006 9.87258e-008 4.2217e-006 -5.30172 15.0766 1.88507 1.61183e-006 2.32867e-007 3 -8.02957 -4.95143 -0.697659 -179.738 2.91112 -2.1597 180 7.01572e-015 179.038 179.518 9.11645 179.411 -5.3236e-007 -4.95797e-006 0.0334615 -16.0621 67.4653 19.14 8.13649 25.2327 -3.48774 -178.728 2.13491 5.07705 4.54188e-006 -4.6773e-006 -1.32448 -5.50083 -13.2807 -0.405268 3.15201e-007 2.66692e-006 -0.337504 26.8065 71.7846 -23.854 -8.1367 25.2357 3.48386 
55.3245 94.0042 32.647 -1.79703 -2.54398 1.69849 0.190823 -0.915632 0.0119785 0.381867 2.15624 0.0138459 0.382073 3.80129 0.013238 -2.80715 12.562 -0.785832 3.47016 -10.9472 -0.840457 81.0659 -4.1766 -4.08719 89.3645 7.88601 16.2667 4.57451e-006 8.23081e-007 3.25657e-006 11.3664 12.0208 -2.12379 1.1581e-005 3.05772e-007 -3 8.02889 -4.9514 0.697667 -63.3283 -1.38068 1.33948 -106.943 -4.45198 -16.0016 4.38208e-006 9.87258e-008 4.2217e-006 -5.29161 15.0879 1.8834 1.61183e-006 2.32867e-007 3 -8.02957 -4.95143 -0.697659 -179.73 2.91183 -2.16428 180 7.01572e-015 179.038 179.519 9.11565 179.411 -5.3236e-007 -4.95797e-006 0.0335133 -16.0594 67.4607 19.135 8.13649 25.2327 -3.48774 -178.719 2.14226 5.06618 4.54188e-006 -4.6773e-006 -1.32448 -5.50535 -13.2878 -0.406208 3.15201e-007 2.66692e-006 -0.337492 26.8189 71.7853 -23.8564 -8.1367 25.2357 3.48386 
55.3179 94.0014 32.6444 -1.80081 -2.54369 1.70588 0.192967 -0.909497 0.0113398 0.386124 2.16974 0.0126286 0.386351 3.81479 0.0115196 -2.92758 12.6104 -0.75379 3.59221 -10.9428 -0.818017 81.0455 -4.17943 -4.08701 89.3981 7.87218 16.2314 4.57451e-006 8.23081e-007 3.25657e-006 11.3783 12.1009 -2.13445 1.1581e-005 3.05772e-007 -3 8.02889 -4.9514 0.697667 -63.3191 -1.39049 1.34405 -106.955 -4.44107 -16.0035 4.38208e-006 9.87258e-008 4.2217e-006 -5.28114 15.0985 1.88158 1.61183e-006 2.32867e-007 3 -8.02957 -4.95143 -0.697659 -179.723 2.91217 -2.16885 180 7.01572e-015 179.038 179.52 9.11487 179.411 -5.3236e-007 -4.95797e-006 0.0335904 -16.0569 67.4564 19.1302 8.13649 25.2327 -3.48774 -178.709 2.14898 5.05497 4.54188e-006 -4.6773e-006 -1.32448 -5.51008 -13.2944 -0.407147 3.15201e-007 2.66692e-006 -0.337474 26.8322 71.786 -23.859 -8.1367 25.2357 3.48386 
55.313 94.0014 32.6433 -1.80467 -2.54344 1.71319 0.195135 -0.90337 0.0107126 0.390429 2.18326 0.0114535 0.390679 3.82831 0.00983856 -3.05034 12.6587 -0.721356 3.71783 -10.9395 -0.795033 81.0253 -4.18229 -4.08684 89.4312 7.85737 16.1964 4.57451e-006 8.23081e-007 3.25657e-006 11.3902 12.1817 -2.14522 1.1581e-005 3.05772e-007 -3 8.02889 -4.9514 0.697667 -63.3093 -1.40059 1.34873 -106.969 -4.43054 -16.0056 4.38208e-006 9.87258e-008 4.2217e-006 -5.27043 15.1086 1.87966 1.61183e-006 2.32867e-007 3 -8.02957 -4.95143 -0.697659 -179.715 2.91226 -2.1734 180 7.01572e-015 179.038 179.521 9.11409 179.411 -5.3236e-007 -4.95797e-006 0.0336852 -16.0545 67.4524 19.1256 8.13649 25.2327 -3.48774 -178.7 2.15528 5.04352 4.54188e-006 -4.6773e-006 -1.32448 -5.51495 -13.3006 -0.408086 3.15201e-007 2.66692e-006 -0.337452 26.8462 71.7868 -23.8616 -8.1367 25.2357 3.48386 
55.3157 94.0011 32.6418 -1.80858 -2.54319 1.72045 0.197318 -0.897247 0.0100919 0.394762 2.19678 0.0103027 0.395034 3.84183 0.00817893 -3.17446 12.7069 -0.688693 3.84549 -10.937 -0.771739 81.0053 -4.18518 -4.0867 89.4643 7.842 16.1614 4.57451e-006 8.23081e-007 3.25657e-006 11.4021 12.2631 -2.15607 1.1581e-005 3.05772e-007 -3 8.02889 -4.9514 0.697667 -63.2993 -1.41085 1.35346 -106.983 -4.42023 -16.0079 4.38208e-006 9.87258e-008 4.2217e-006 -5.25957 15.1185 1.87767 1.61183e-006 2.32867e-007 3 -8.02957 -4.95143 -0.697659 -179.707 2.91221 -2.17795 180 7.01572e-015 179.038 179.522 9.11334 179.411 -5.3236e-007 -4.95797e-006 0.0337901 -16.0523 67.4485 19.121 8.13649 25.2327 -3.48774 -178.69 2.16132 5.03193 4.54188e-006 -4.6773e-006 -1.32448 -5.5199 -13.3065 -0.409026 3.15201e-007 2.66692e-006 -0.337428 26.8606 71.7875 -23.8644 -8.1367 25.2357 3.48386 
55.3132 94.0009 32.6353 -1.8125 -2.54295 1.7277 0.199504 -0.891125 0.00947294 0.399103 2.21031 0.00915794 0.399397 3.85536 0.0065246 -3.29896 12.7551 -0.655964 3.97365 -10.9347 -0.748368 80.9852 -4.18808 -4.08655 89.4972 7.82648 16.1264 4.57451e-006 8.23081e-007 3.25657e-006 11.4141 12.3445 -2.16693 1.1581e-005 3.05772e-007 -3 8.02889 -4.9514 0.697667 -63.2891 -1.42116 1.35821 -106.996 -4.40998 -16.0103 4.38208e-006 9.87258e-008 4.2217e-006 -5.24868 15.1283 1.87567 1.61183e-006 2.32867e-007 3 -8.02957 -4.95143 -0.697659 -179.7 2.91211 -2.18249 180 7.01572e-015 179.038 179.523 9.11259 179.41 -5.3236e-007 -4.95797e-006 0.0338976 -16.05 67.4447 19.1165 8.13649 25.2327 -3.48774 -178.68 2.1673 5.02031 4.54188e-006 -4.6773e-006 -1.32448 -5.52487 -13.3124 -0.409965 3.15201e-007 2.66692e-006 -0.337403 26.8751 71.7883 -23.8671 -8.1367 25.2357 3.48386 
55.3114 94.0018 32.6332 -1.81639 -2.54271 1.73497 0.201683 -0.885001 0.00885065 0.403431 2.22383 0.00800103 0.403747 3.86888 0.00485951 -3.42287 12.8034 -0.623331 4.10079 -10.932 -0.725152 80.9651 -4.19096 -4.0864 89.5302 7.81123 16.0914 4.57451e-006 8.23081e-007 3.25657e-006 11.4261 12.4258 -2.17778 1.1581e-005 3.05772e-007 -3 8.02889 -4.9514 0.697667 -63.2791 -1.43138 1.36293 -107.01 -4.39961 -16.0126 4.38208e-006 9.87258e-008 4.2217e-006 -5.23786 15.1382 1.8737 1.61183e-006 2.32867e-007 3 -8.02957 -4.95143 -0.697659 -179.692 2.91209 -2.18704 180 7.01572e-015 179.038 179.524 9.11181 179.41 -5.3236e-007 -4.95797e-006 0.0339999 -16.0477 67.4408 19.1119 8.13649 25.2327 -3.48774 -178.671 2.17341 5.00876 4.54188e-006 -4.6773e-006 -1.32448 -5.5298 -13.3184 -0.410905 3.15201e-007 2.66692e-006 -0.33738 26.8894 71.789 -23.8698 -8.1367 25.2357 3.48386 
55.3116 94.0006 32.6186 -1.82023 -2.54244 1.7423 0.203845 -0.878871 0.00822016 0.407725 2.23734 0.00681382 0.408063 3.88239 0.00316759 -3.5452 12.8517 -0.590958 4.22538 -10.9284 -0.702326 80.9449 -4.19381 -4.08623 89.5634 7.79667 16.0563 4.57451e-006 8.23081e-007 3.25657e-006 11.4382 12.5064 -2.18857 1.1581e-005 3.05772e-007 -3 8.02889 -4.9514 0.697667 -63.2694 -1.4414 1.36758 -107.023 -4.38897 -16.0146 4.38208e-006 9.87258e-008 4.2217e-006 -5.22722 15.1485 1.87181 1.61183e-006 2.32867e-007 3 -8.02957 -4.95143 -0.697659 -179.685 2.91225 -2.1916 180 7.01572e-015 179.038 179.524 9.11105 179.41 -5.3236e-007 -4.95797e-006 0.0340897 -16.0453 67.4367 19.1072 8.13649 25.2327 -3.48774 -178.661 2.17983 4.99738 4.54188e-006 -4.6773e-006 -1.32448 -5.53462 -13.3247 -0.411844 3.15201e-007 2.66692e-006 -0.337359 26.9032 71.7897 -23.8725 -8.1367 25.2357 3.48386 
55.3085 94.0007 32.6169 -1.82398 -2.54215 1.74973 0.205978 -0.872734 0.00757653 0.411964 2.25084 0.00557813 0.412326 3.89588 0.00143278 -3.665 12.9001 -0.559007 4.34589 -10.9235 -0.680122 80.9245 -4.19662 -4.08604 89.5969 7.7832 16.0211 4.57451e-006 8.23081e-007 3.25657e-006 11.4502 12.5861 -2.19925 1.1581e-005 3.05772e-007 -3 8.02889 -4.9514 0.697667 -63.2605 -1.45109 1.37211 -107.036 -4.3779 -16.0164 4.38208e-006 9.87258e-008 4.2217e-006 -5.21685 15.1593 1.87004 1.61183e-006 2.32867e-007 3 -8.02957 -4.95143 -0.697659 -179.677 2.91271 -2.19617 180 7.01572e-015 179.038 179.525 9.11026 179.41 -5.3236e-007 -4.95797e-006 0.0341592 -16.0428 67.4324 19.1024 8.13649 25.2327 -3.48774 -178.652 2.18674 4.98627 4.54188e-006 -4.6773e-006 -1.32448 -5.53929 -13.3314 -0.412784 3.15201e-007 2.66692e-006 -0.337343 26.9162 71.7905 -23.875 -8.1367 25.2357 3.48386 
